<svg xmlns="http://www.w3.org/2000/svg" width="612" height="396" viewBox="0 0 612 396" class="abc-logo"><path fill="#fff" d="M49.154 334.105h4.38v-26.1h-4.38v-3.96h17.64c3.92 0 6.88.72 8.88 2.16s3 3.521 3 6.239c0 1.881-.48 3.451-1.44 4.711s-2.32 2.15-4.08 2.67c2.44.52 4.28 1.55 5.52 3.09 1.24 1.54 1.86 3.391 1.86 5.55 0 2.841-1.04 5.15-3.12 6.931-2.08 1.779-5.28 2.67-9.6 2.67h-18.66v-3.961zm16.86-15.899c4.24 0 6.36-1.761 6.36-5.28 0-1.76-.57-3.02-1.71-3.779-1.14-.761-2.99-1.141-5.55-1.141h-5.28v10.2h6.18zm.66 15.84c4.92 0 7.38-2 7.38-6 0-1.84-.63-3.28-1.89-4.319-1.26-1.041-3.15-1.561-5.67-1.561h-6.66v11.88h6.84zm17.64 4.02v-3.961h4.14l9.42-26.1h-3.66v-3.96h18.48v3.96h-3.78l9.72 26.1h3.9v3.961h-14.82v-3.961h4.32l-3-8.879h-11.82l-3 8.879h4.2v3.961h-14.1zm14.04-16.68h9.48l-4.5-13.319h-.3l-4.68 13.319zm28.26 12.719h4.38v-26.1h-4.38v-3.96h17.28c4.32 0 7.608.82 9.87 2.46 2.258 1.641 3.39 4.1 3.39 7.38 0 3.4-1.132 5.97-3.39 7.71-2.26 1.74-5.55 2.61-9.87 2.61h-4.32v-3.96h3.84c2.32 0 4.1-.54 5.34-1.62 1.238-1.08 1.86-2.64 1.86-4.681 0-1.92-.55-3.389-1.65-4.409-1.102-1.021-2.692-1.53-4.77-1.53h-6.9v26.1h4.5v3.961h-15.18v-3.961zm42.3 3.961v-3.961h4.44v-26.1h-8.4v8.1h-4.44v-12.06h31.86v12.06h-4.44v-8.1h-8.28v26.1h4.44v3.961h-15.18zm28.018 0v-3.961h4.32v-26.1h-4.32v-3.96h15.06v3.96h-4.38v26.1h4.38v3.961h-15.06zm45.24-16.65c1.84 1.54 2.76 3.891 2.76 7.05 0 1.92-.44 3.65-1.32 5.19-.88 1.539-2.16 2.76-3.84 3.66-1.68.899-3.66 1.35-5.94 1.35-2.12 0-4.08-.4-5.88-1.2-1.8-.8-3.22-1.92-4.26-3.36v3.961h-4.68v-11.521h4.26c.4 2.399 1.48 4.34 3.24 5.82 1.76 1.479 4 2.22 6.72 2.22 1.88 0 3.34-.439 4.38-1.32 1.04-.88 1.56-2.14 1.56-3.779 0-1.278-.24-2.288-.72-3.03-.48-.738-1.24-1.328-2.28-1.771-1.04-.438-2.52-.817-4.44-1.14l-2.1-.42c-7.24-1.28-10.86-4.681-10.86-10.2 0-2.96.99-5.29 2.97-6.99 1.98-1.699 4.63-2.55 7.95-2.55 1.92 0 3.67.32 5.25.96 1.58.641 2.87 1.561 3.87 2.76v-3.06h4.5v9.72h-4.14c-1.08-4.199-3.96-6.3-8.64-6.3-1.84 0-3.27.431-4.29 1.29-1.02.86-1.53 2.01-1.53 3.45 0 1.521.57 2.71 1.71 3.569 1.14.861 2.91 1.511 5.31 1.951l1.56.299c4.08.721 7.04 1.851 8.88 3.391zm15.18 16.65v-3.961h4.44v-26.1h-8.4v8.1h-4.44v-12.06h31.86v12.06h-4.44v-8.1h-8.28v26.1h4.44v3.961h-15.18zm80.877-9.78c-1.239 3.521-3.279 6.13-6.119 7.83-2.843 1.7-6.263 2.569-10.261 2.61-3.562 0-6.72-.74-9.479-2.221s-4.91-3.561-6.45-6.24-2.31-5.76-2.31-9.24c0-3.399.75-6.43 2.25-9.09s3.608-4.74 6.331-6.24c2.72-1.5 5.84-2.25 9.359-2.25 2.521 0 4.771.44 6.75 1.32 1.979.881 3.548 2.12 4.71 3.721v-4.44h4.438v10.8l-3.9.061c-1.2-2.398-2.7-4.158-4.5-5.28-1.8-1.118-4-1.681-6.6-1.681-2.521 0-4.71.57-6.57 1.711a11.67 11.67 0 0 0-4.32 4.65c-1.02 1.959-1.529 4.18-1.529 6.659 0 2.64.52 4.96 1.562 6.96 1.04 2 2.48 3.551 4.32 4.65s3.938 1.65 6.3 1.65c2.64 0 4.95-.66 6.93-1.98 1.98-1.32 3.41-3.32 4.29-6l4.798 2.04zm15 8.1c-2.84-1.56-5.029-3.67-6.569-6.329-1.54-2.66-2.311-5.631-2.311-8.91 0-3.278.771-6.261 2.311-8.94 1.54-2.679 3.729-4.808 6.569-6.39 2.841-1.58 6.101-2.371 9.78-2.371 3.681 0 6.931.791 9.75 2.371 2.82 1.582 5.01 3.711 6.57 6.39 1.56 2.683 2.34 5.662 2.34 8.94 0 3.279-.771 6.25-2.312 8.91-1.54 2.659-3.73 4.77-6.57 6.329s-6.101 2.341-9.78 2.341-6.939-.781-9.78-2.341h.002zm16.168-3.9c1.819-1.16 3.21-2.74 4.17-4.74s1.439-4.221 1.439-6.66c0-2.48-.479-4.72-1.439-6.72s-2.351-3.58-4.17-4.74c-1.82-1.16-3.95-1.739-6.391-1.739-2.439 0-4.57.579-6.39 1.739-1.82 1.16-3.2 2.75-4.141 4.771-.939 2.021-1.409 4.271-1.409 6.75s.479 4.709 1.439 6.689 2.34 3.54 4.14 4.68c1.801 1.141 3.921 1.711 6.36 1.711 2.442 0 4.572-.581 6.392-1.741zm17.49 5.58v-3.961h4.38v-26.22h-4.38v-3.84h15.061v3.84h-4.38v26.22h12.84v-10.08h4.68v14.041h-28.201zm32.22 0v-3.961h4.38v-26.22h-4.38v-3.84h15.06v3.84h-4.38v26.22h12.84v-10.08h4.68v14.041h-28.2zm32.22 0v-3.961h4.38v-26.1h-4.38v-3.96h30.36v10.56h-4.5v-6.6h-15.183v10.5h9.12v-3.779h3.18v11.64h-3.18v-3.9h-9.12v11.58h15.48v-6.84h4.439v10.86h-30.6.004zm72.6-17.52v1.979c0 5.041-1.552 8.99-4.649 11.851-3.101 2.86-7.37 4.29-12.811 4.29-3.84 0-7.182-.74-10.021-2.221-2.84-1.479-5.021-3.559-6.54-6.239-1.521-2.681-2.28-5.74-2.28-9.181 0-3.439.78-6.489 2.34-9.149 1.561-2.66 3.73-4.729 6.51-6.21 2.78-1.48 5.971-2.22 9.57-2.22 2.521 0 4.76.42 6.72 1.26s3.58 2.021 4.86 3.54v-4.2h4.68v10.979h-4.08c-1.08-2.319-2.59-4.09-4.529-5.31-1.94-1.22-4.21-1.829-6.811-1.829-3.84 0-6.89 1.149-9.149 3.449-2.261 2.301-3.391 5.45-3.391 9.45 0 4.12 1.11 7.38 3.33 9.78s5.23 3.6 9.03 3.6c3.24-.08 5.859-.9 7.859-2.46s3.08-3.92 3.24-7.08h-6.899v-4.08H523.927zm5.278 17.52v-3.961h4.38v-26.1h-4.38v-3.96h30.36v10.56h-4.5v-6.6h-15.181v10.5h9.12v-3.779h3.18v11.64h-3.18v-3.9h-9.12v11.58h15.48v-6.84h4.438v10.86h-30.597zm-508.207-55v-5.676h5.934l13.502-37.41h-5.246v-5.676h26.488v5.676h-5.418l13.932 37.41h5.59v5.676H54.538v-5.676h6.192l-4.3-12.73H39.488l-4.3 12.73h6.02v5.676h-20.21zm20.124-23.908H54.71l-6.45-19.092h-.43l-6.708 19.092zm40.592 23.908v-5.676h6.106v-37.41h-6.106v-5.676h18.576l14.534 31.991 13.846-31.991h18.49v5.676h-6.02v37.41h6.02v5.676h-20.554v-5.676h5.848v-35.348l-17.028 38.7h-3.354l-17.286-38.7v35.348h5.848v5.676h-18.92zm72.583-5.675h6.278v-37.41h-6.278v-5.674h25.284c5.62 0 9.86 1.029 12.73 3.096 2.865 2.064 4.3 5.047 4.3 8.945 0 2.694-.69 4.943-2.065 6.75-1.376 1.807-3.326 3.082-5.848 3.827 3.497.745 6.134 2.222 7.912 4.431 1.775 2.207 2.665 4.856 2.665 7.953 0 4.07-1.492 7.383-4.472 9.934-2.982 2.552-7.568 3.826-13.76 3.826h-26.746v-5.678zm24.166-22.789c6.077 0 9.116-2.521 9.116-7.567 0-2.522-.818-4.328-2.452-5.418-1.634-1.089-4.287-1.634-7.955-1.634h-7.568v14.619h8.859zm.946 22.705c7.05 0 10.577-2.867 10.577-8.601 0-2.638-.903-4.7-2.71-6.192-1.805-1.49-4.514-2.236-8.126-2.236h-9.545v17.029h9.804zm25.282 5.759v-5.676h5.934l13.502-37.41h-5.246v-5.676h26.488v5.676h-5.418l13.932 37.41h5.59v5.676h-21.242v-5.676h6.192l-4.3-12.729h-16.942l-4.3 12.729h6.02v5.676h-20.21zm20.124-23.907h13.588l-6.45-19.093h-.43l-6.708 19.093zm75.937.043c2.636 2.21 3.956 5.578 3.956 10.106 0 2.752-.633 5.231-1.893 7.438-1.262 2.208-3.096 3.956-5.504 5.246-2.408 1.29-5.246 1.936-8.514 1.936-3.04 0-5.85-.574-8.43-1.72-2.58-1.147-4.615-2.753-6.105-4.815v5.676h-6.708v-16.512h6.106c.572 3.439 2.12 6.221 4.644 8.342 2.522 2.121 5.732 3.182 9.632 3.182 2.693 0 4.786-.63 6.277-1.893 1.49-1.26 2.236-3.065 2.236-5.418 0-1.834-.344-3.279-1.032-4.343-.687-1.06-1.777-1.905-3.267-2.536-1.492-.631-3.612-1.176-6.364-1.635l-3.01-.604c-10.378-1.832-15.567-6.706-15.567-14.619 0-4.24 1.42-7.58 4.257-10.018 2.838-2.438 6.636-3.656 11.395-3.656 2.752 0 5.26.461 7.525 1.377 2.264.918 4.113 2.236 5.547 3.955v-4.387h6.45v13.933h-5.934c-1.548-6.021-5.676-9.03-12.384-9.03-2.64 0-4.688.617-6.15 1.85-1.462 1.233-2.193 2.881-2.193 4.944 0 2.181.817 3.884 2.45 5.116 1.635 1.232 4.172 2.165 7.612 2.795l2.235.432c5.85 1.032 10.09 2.653 12.728 4.86l.005-.002zm46.525 0c2.637 2.21 3.956 5.578 3.956 10.106 0 2.752-.633 5.231-1.893 7.438-1.263 2.208-3.097 3.956-5.505 5.246-2.407 1.29-5.245 1.936-8.514 1.936-3.04 0-5.849-.574-8.429-1.72-2.579-1.147-4.615-2.753-6.105-4.815v5.676h-6.71v-16.512h6.106c.572 3.439 2.12 6.221 4.645 8.342 2.522 2.121 5.733 3.182 9.633 3.182 2.694 0 4.787-.63 6.278-1.893 1.49-1.26 2.236-3.065 2.236-5.418 0-1.834-.344-3.279-1.031-4.343-.688-1.06-1.777-1.905-3.269-2.536-1.492-.631-3.611-1.176-6.364-1.635l-3.01-.604c-10.378-1.832-15.565-6.706-15.565-14.619 0-4.24 1.42-7.58 4.257-10.018 2.838-2.438 6.636-3.656 11.396-3.656 2.752 0 5.261.461 7.524 1.377 2.265.918 4.113 2.236 5.547 3.955v-4.387h6.45v13.933h-5.934c-1.548-6.021-5.676-9.03-12.384-9.03-2.64 0-4.688.617-6.149 1.85-1.46 1.233-2.192 2.881-2.192 4.944 0 2.181.818 3.884 2.452 5.116s4.17 2.165 7.609 2.795l2.237.432c5.848 1.032 10.09 2.653 12.729 4.86l-.001-.002zm9.803 23.866v-5.676h5.935l13.502-37.41h-5.245v-5.676h26.489v5.676h-5.42l13.934 37.41h5.59v5.676h-21.24v-5.676h6.19l-4.301-12.73H375.57l-4.301 12.73h6.021v5.676h-20.21zm20.125-23.908h13.588l-6.45-19.092h-.43l-6.708 19.092zm40.59 18.233h6.192v-37.41h-6.19v-5.674h27.175c5.446 0 10.062 1.117 13.847 3.354 3.783 2.234 6.622 5.174 8.515 8.814 1.892 3.642 2.838 7.582 2.838 11.824 0 4.872-.945 9.174-2.837 12.898-1.893 3.728-4.717 6.637-8.472 8.73-3.755 2.092-8.355 3.137-13.803 3.137h-27.262v-5.674h-.003zm26.06 0c5.729 0 10.003-1.731 12.812-5.201 2.808-3.471 4.214-8.07 4.214-13.803 0-5.274-1.434-9.66-4.3-13.158-2.868-3.498-7.053-5.246-12.557-5.246h-10.923v37.41h10.75l.004-.002zm46.954 3.268c-4.071-2.235-7.21-5.261-9.418-9.073-2.207-3.812-3.31-8.068-3.31-12.77 0-4.7 1.103-8.975 3.31-12.815s5.347-6.894 9.417-9.157c4.07-2.266 8.742-3.397 14.019-3.397 5.273 0 9.933 1.133 13.975 3.397 4.042 2.266 7.183 5.317 9.417 9.157 2.236 3.843 3.354 8.114 3.354 12.813 0 4.703-1.104 8.961-3.312 12.771-2.207 3.815-5.347 6.84-9.417 9.074-4.069 2.235-8.743 3.354-14.018 3.354s-9.948-1.117-14.019-3.354h.002zm23.176-5.59c2.606-1.662 4.6-3.927 5.977-6.794 1.376-2.866 2.064-6.049 2.064-9.547 0-3.555-.688-6.765-2.064-9.631-1.376-2.867-3.37-5.131-5.977-6.795-2.61-1.662-5.663-2.494-9.16-2.494s-6.55.832-9.158 2.494c-2.61 1.663-4.588 3.942-5.934 6.838-1.351 2.895-2.021 6.119-2.021 9.674 0 3.556.688 6.75 2.063 9.59s3.354 5.072 5.934 6.707c2.58 1.634 5.62 2.451 9.117 2.451 3.496 0 6.55-.83 9.16-2.493h-.001zm25.07 2.324h6.276v-37.41h-6.277v-5.676h26.66c5.504 0 9.817 1.104 12.942 3.311 3.124 2.21 4.688 5.52 4.688 9.936 0 7.109-3.956 11.409-11.868 12.899l10.32 16.854h6.535v5.762h-12.985l-12.557-21.672h-5.332v-5.848h7.225c3.44 0 5.891-.76 7.354-2.279 1.462-1.519 2.193-3.453 2.193-5.805 0-2.18-.732-3.97-2.194-5.375-1.462-1.404-3.601-2.107-6.407-2.107H554.36v37.41h6.191v5.678h-21.5v-5.676l.004-.002zM309.26 88.75l12.75 37.74h-26.86l13.26-37.74h.85zm85.407 36.856c0 46.98-38.086 85.066-85.067 85.066-46.98 0-85.065-38.085-85.065-85.066S262.62 40.54 309.6 40.54s85.067 38.085 85.067 85.066zm-31.007 36.922h-11.05L325.07 88.58h10.71V77.36h-52.36v11.22h10.37l-26.69 73.95h-11.73v11.22h39.95v-11.22h-11.9l8.5-25.16h33.49l8.5 25.16h-12.24v11.22h41.99v-11.222z"/></svg>