<svg xmlns="http://www.w3.org/2000/svg" width="612" height="396" viewBox="0 0 612 396" class="abc-logo"><path fill="#fff" d="M45.154 334.106h4.38v-26.1h-4.38v-3.96h17.64c3.92 0 6.88.72 8.88 2.16 2 1.44 3 3.52 3 6.24 0 1.88-.48 3.45-1.44 4.71s-2.32 2.15-4.08 2.67c2.44.52 4.28 1.55 5.52 3.09 1.24 1.54 1.86 3.39 1.86 5.55 0 2.84-1.04 5.15-3.12 6.93-2.08 1.78-5.28 2.67-9.6 2.67h-18.66v-3.96zm16.86-15.9c4.24 0 6.36-1.76 6.36-5.28 0-1.76-.57-3.02-1.71-3.78-1.14-.76-2.99-1.14-5.55-1.14h-5.28v10.2h6.18zm.66 15.84c4.92 0 7.38-2 7.38-6 0-1.84-.63-3.28-1.89-4.32-1.26-1.04-3.15-1.56-5.67-1.56h-6.66v11.88h6.84zm17.64 4.02v-3.96h4.14l9.42-26.1h-3.66v-3.96h18.48v3.96h-3.78l9.72 26.1h3.9v3.96h-14.82v-3.96h4.32l-3-8.88h-11.82l-3 8.88h4.2v3.96h-14.1zm14.04-16.68h9.48l-4.5-13.32h-.3l-4.68 13.32zm28.26 12.72h4.38v-26.1h-4.38v-3.96h17.28c4.32 0 7.608.82 9.87 2.46 2.258 1.64 3.39 4.1 3.39 7.38 0 3.4-1.132 5.97-3.39 7.71-2.26 1.74-5.55 2.61-9.87 2.61h-4.32v-3.96h3.84c2.32 0 4.1-.54 5.34-1.62 1.238-1.08 1.86-2.64 1.86-4.68 0-1.92-.55-3.39-1.65-4.41-1.102-1.02-2.692-1.53-4.77-1.53h-6.9v26.1h4.5v3.96h-15.18v-3.96zm42.3 3.96v-3.96h4.44v-26.1h-8.4v8.1h-4.44v-12.06h31.86v12.06h-4.44v-8.1h-8.28v26.1h4.44v3.96h-15.18zm28.018 0v-3.96h4.32v-26.1h-4.32v-3.96h15.06v3.96h-4.38v26.1h4.38v3.96h-15.06zm45.24-16.65c1.84 1.54 2.76 3.89 2.76 7.05 0 1.92-.44 3.65-1.32 5.19-.88 1.54-2.16 2.76-3.84 3.66-1.68.9-3.66 1.35-5.94 1.35-2.12 0-4.08-.4-5.88-1.2-1.8-.8-3.22-1.92-4.26-3.36v3.96h-4.68v-11.52h4.26c.4 2.4 1.48 4.34 3.24 5.82 1.76 1.48 4 2.22 6.72 2.22 1.88 0 3.34-.44 4.38-1.32 1.04-.88 1.56-2.14 1.56-3.78 0-1.278-.24-2.288-.72-3.03-.48-.738-1.24-1.328-2.28-1.77-1.04-.438-2.52-.818-4.44-1.14l-2.1-.42c-7.24-1.28-10.86-4.68-10.86-10.2 0-2.96.99-5.29 2.97-6.99s4.63-2.55 7.95-2.55c1.92 0 3.67.32 5.25.96 1.58.64 2.87 1.56 3.87 2.76v-3.06h4.5v9.72h-4.14c-1.08-4.2-3.96-6.3-8.64-6.3-1.84 0-3.27.43-4.29 1.29s-1.53 2.01-1.53 3.45c0 1.52.57 2.71 1.71 3.57 1.14.86 2.91 1.51 5.31 1.95l1.56.3c4.08.72 7.04 1.85 8.88 3.39zm15.18 16.65v-3.96h4.44v-26.1h-8.4v8.1h-4.44v-12.06h31.86v12.06h-4.44v-8.1h-8.28v26.1h4.44v3.96h-15.18zm80.877-9.78c-1.24 3.52-3.28 6.13-6.12 7.83-2.842 1.7-6.262 2.57-10.26 2.61-3.562 0-6.72-.74-9.48-2.22-2.76-1.48-4.91-3.56-6.45-6.24s-2.31-5.76-2.31-9.24c0-3.4.75-6.43 2.25-9.09s3.608-4.74 6.33-6.24c2.72-1.5 5.84-2.25 9.36-2.25 2.52 0 4.77.44 6.75 1.32 1.978.88 3.548 2.12 4.71 3.72v-4.44h4.438v10.8l-3.9.06c-1.2-2.398-2.7-4.158-4.5-5.28-1.8-1.118-4-1.68-6.6-1.68-2.52 0-4.71.57-6.57 1.71-1.86 1.142-3.3 2.69-4.32 4.65s-1.53 4.18-1.53 6.66c0 2.64.52 4.96 1.562 6.96 1.04 2 2.48 3.55 4.32 4.65 1.84 1.1 3.938 1.65 6.3 1.65 2.64 0 4.95-.66 6.93-1.98 1.98-1.32 3.41-3.32 4.29-6l4.8 2.04zm15 8.1c-2.84-1.56-5.03-3.67-6.57-6.33s-2.31-5.63-2.31-8.91c0-3.278.77-6.26 2.31-8.94 1.54-2.678 3.73-4.808 6.57-6.39 2.84-1.58 6.1-2.37 9.78-2.37 3.68 0 6.93.79 9.75 2.37 2.82 1.582 5.01 3.712 6.57 6.39 1.56 2.682 2.34 5.662 2.34 8.94 0 3.28-.772 6.25-2.312 8.91s-3.73 4.77-6.57 6.33c-2.84 1.56-6.1 2.34-9.78 2.34-3.68 0-6.94-.78-9.78-2.34zm16.168-3.9c1.82-1.16 3.21-2.74 4.17-4.74s1.44-4.22 1.44-6.66c0-2.48-.48-4.72-1.44-6.72s-2.35-3.58-4.17-4.74c-1.82-1.16-3.95-1.74-6.39-1.74-2.44 0-4.57.58-6.39 1.74-1.82 1.16-3.2 2.75-4.14 4.77-.94 2.022-1.41 4.272-1.41 6.75 0 2.48.48 4.71 1.44 6.69.96 1.98 2.34 3.54 4.14 4.68 1.8 1.14 3.92 1.71 6.36 1.71 2.44 0 4.57-.58 6.39-1.74zm17.49 5.58v-3.96h4.38v-26.22h-4.38v-3.84h15.06v3.84h-4.38v26.22h12.84v-10.08h4.68v14.04h-28.2zm32.22 0v-3.96h4.38v-26.22h-4.38v-3.84h15.06v3.84h-4.38v26.22h12.84v-10.08h4.68v14.04h-28.2zm32.22 0v-3.96h4.38v-26.1h-4.38v-3.96h30.36v10.56h-4.5v-6.6h-15.182v10.5h9.12v-3.78h3.18v11.64h-3.18v-3.9h-9.12v11.58h15.48v-6.84h4.44v10.86h-30.6zm72.6-17.52v1.98c0 5.04-1.552 8.99-4.65 11.85-3.1 2.86-7.37 4.29-12.81 4.29-3.84 0-7.182-.74-10.022-2.22-2.84-1.48-5.02-3.56-6.54-6.24-1.52-2.68-2.28-5.74-2.28-9.18 0-3.44.78-6.49 2.34-9.15 1.56-2.66 3.73-4.73 6.51-6.21 2.78-1.48 5.97-2.22 9.57-2.22 2.52 0 4.76.42 6.72 1.26 1.96.84 3.58 2.02 4.86 3.54v-4.2h4.68v10.98h-4.08c-1.08-2.32-2.59-4.09-4.53-5.31-1.94-1.22-4.21-1.83-6.81-1.83-3.84 0-6.89 1.15-9.15 3.45-2.26 2.3-3.39 5.45-3.39 9.45 0 4.12 1.11 7.38 3.33 9.78s5.23 3.6 9.03 3.6c3.24-.08 5.86-.9 7.86-2.46s3.08-3.92 3.24-7.08h-6.9v-4.08h13.02zm5.278 17.52v-3.96h4.38v-26.1h-4.38v-3.96h30.36v10.56h-4.5v-6.6h-15.18v10.5h9.12v-3.78h3.18v11.64h-3.18v-3.9h-9.12v11.58h15.48v-6.84h4.438v10.86h-30.598zM16.998 283.066v-5.676h5.934l13.502-37.41h-5.246v-5.676h26.488v5.676h-5.418l13.932 37.41h5.59v5.676H50.538v-5.676h6.192l-4.3-12.73H35.488l-4.3 12.73h6.02v5.676h-20.21zm20.124-23.908H50.71l-6.45-19.092h-.43l-6.708 19.092zm40.592 23.908v-5.676h6.106v-37.41h-6.106v-5.676H96.29l14.534 31.992 13.846-31.992h18.49v5.676h-6.02v37.41h6.02v5.676h-20.554v-5.676h5.848v-35.347l-17.028 38.7h-3.354l-17.286-38.7v35.347h5.848v5.676h-18.92zm72.583-5.675h6.278v-37.41h-6.278v-5.675h25.284c5.62 0 9.86 1.03 12.73 3.096 2.865 2.065 4.3 5.047 4.3 8.945 0 2.695-.69 4.944-2.065 6.75-1.376 1.807-3.326 3.083-5.848 3.828 3.497.745 6.134 2.222 7.912 4.43 1.775 2.207 2.665 4.857 2.665 7.954 0 4.07-1.492 7.383-4.472 9.933-2.982 2.552-7.568 3.827-13.76 3.827h-26.746v-5.676zm24.166-22.79c6.077 0 9.116-2.52 9.116-7.567 0-2.522-.818-4.328-2.452-5.418-1.634-1.088-4.287-1.634-7.955-1.634h-7.568v14.62h8.858zm.946 22.705c7.05 0 10.577-2.866 10.577-8.6 0-2.637-.903-4.7-2.71-6.192-1.805-1.49-4.514-2.236-8.126-2.236h-9.545v17.028h9.804zm25.282 5.76v-5.675h5.934l13.502-37.41h-5.246v-5.676h26.488v5.676h-5.418l13.932 37.41h5.59v5.676h-21.242v-5.676h6.192l-4.3-12.73h-16.942l-4.3 12.73h6.02v5.676h-20.21zm20.124-23.907h13.588l-6.45-19.092h-.43l-6.708 19.092zm75.937.043c2.636 2.21 3.956 5.578 3.956 10.106 0 2.752-.633 5.232-1.893 7.438-1.262 2.208-3.096 3.956-5.504 5.246-2.408 1.29-5.246 1.936-8.514 1.936-3.04 0-5.85-.574-8.43-1.72-2.58-1.147-4.615-2.753-6.105-4.816v5.676h-6.708v-16.512h6.106c.572 3.44 2.12 6.222 4.644 8.342 2.522 2.122 5.732 3.182 9.632 3.182 2.693 0 4.786-.63 6.277-1.892 1.49-1.26 2.236-3.066 2.236-5.418 0-1.834-.344-3.28-1.032-4.343-.687-1.06-1.777-1.906-3.267-2.537-1.492-.63-3.612-1.175-6.364-1.634l-3.01-.603c-10.378-1.833-15.567-6.707-15.567-14.62 0-4.24 1.42-7.58 4.257-10.018 2.838-2.437 6.636-3.655 11.395-3.655 2.752 0 5.26.46 7.525 1.376 2.264.918 4.113 2.236 5.547 3.956v-4.387h6.45v13.932h-5.934c-1.548-6.02-5.676-9.03-12.384-9.03-2.64 0-4.688.617-6.15 1.85-1.462 1.233-2.193 2.88-2.193 4.944 0 2.18.817 3.884 2.45 5.116 1.635 1.233 4.172 2.165 7.612 2.795l2.235.432c5.85 1.032 10.09 2.653 12.728 4.86zm46.525 0c2.637 2.21 3.956 5.578 3.956 10.106 0 2.752-.632 5.232-1.892 7.438-1.263 2.208-3.097 3.956-5.505 5.246-2.407 1.29-5.245 1.936-8.514 1.936-3.04 0-5.848-.574-8.428-1.72-2.58-1.147-4.616-2.753-6.106-4.816v5.676h-6.71v-16.512h6.107c.572 3.44 2.12 6.222 4.644 8.342 2.523 2.122 5.733 3.182 9.633 3.182 2.694 0 4.787-.63 6.278-1.892 1.49-1.26 2.237-3.066 2.237-5.418 0-1.834-.344-3.28-1.032-4.343-.688-1.06-1.777-1.906-3.268-2.537-1.492-.63-3.612-1.175-6.364-1.634l-3.01-.603c-10.378-1.833-15.566-6.707-15.566-14.62 0-4.24 1.42-7.58 4.257-10.018 2.838-2.437 6.636-3.655 11.396-3.655 2.752 0 5.26.46 7.524 1.376 2.265.918 4.113 2.236 5.547 3.956v-4.387h6.45v13.932h-5.933c-1.548-6.02-5.676-9.03-12.384-9.03-2.64 0-4.688.617-6.15 1.85-1.46 1.233-2.192 2.88-2.192 4.944 0 2.18.818 3.884 2.452 5.116 1.634 1.233 4.17 2.165 7.61 2.795l2.237.432c5.848 1.032 10.09 2.653 12.728 4.86zm9.803 23.866v-5.676h5.935l13.502-37.41h-5.246v-5.676h26.49v5.676h-5.42l13.933 37.41h5.59v5.676h-21.24v-5.676h6.19l-4.3-12.73H371.57l-4.3 12.73h6.02v5.676h-20.21zm20.125-23.908h13.588l-6.45-19.092h-.43l-6.708 19.092zm40.59 18.233h6.192v-37.41h-6.19v-5.675h27.175c5.446 0 10.062 1.118 13.846 3.354 3.784 2.235 6.622 5.174 8.515 8.814 1.892 3.642 2.838 7.583 2.838 11.825 0 4.872-.945 9.173-2.837 12.898-1.893 3.728-4.717 6.637-8.472 8.73-3.755 2.092-8.355 3.138-13.802 3.138h-27.262v-5.675zm26.06 0c5.73 0 10.003-1.732 12.813-5.202 2.808-3.47 4.214-8.07 4.214-13.803 0-5.274-1.434-9.66-4.3-13.158-2.868-3.497-7.053-5.246-12.557-5.246h-10.922v37.41h10.75zm46.954 3.268c-4.072-2.235-7.21-5.26-9.418-9.073-2.207-3.812-3.31-8.068-3.31-12.77 0-4.7 1.103-8.974 3.31-12.815 2.207-3.84 5.346-6.893 9.417-9.158 4.07-2.265 8.742-3.397 14.018-3.397 5.274 0 9.933 1.133 13.975 3.397 4.042 2.266 7.182 5.318 9.417 9.158 2.236 3.842 3.354 8.114 3.354 12.814 0 4.702-1.104 8.96-3.312 12.77-2.207 3.815-5.347 6.84-9.417 9.074-4.07 2.236-8.743 3.354-14.018 3.354s-9.948-1.117-14.018-3.354zm23.176-5.59c2.607-1.662 4.6-3.927 5.977-6.794 1.376-2.866 2.064-6.048 2.064-9.546 0-3.555-.688-6.765-2.064-9.632-1.376-2.866-3.37-5.13-5.977-6.794-2.61-1.662-5.663-2.494-9.16-2.494s-6.55.832-9.158 2.494c-2.61 1.663-4.588 3.942-5.934 6.837-1.35 2.895-2.02 6.12-2.02 9.674 0 3.556.687 6.75 2.063 9.59s3.354 5.073 5.934 6.707 5.62 2.452 9.117 2.452c3.496 0 6.55-.83 9.16-2.494zm25.07 2.323h6.276v-37.41h-6.277v-5.675h26.66c5.504 0 9.817 1.104 12.942 3.31 3.124 2.21 4.688 5.52 4.688 9.935 0 7.11-3.956 11.41-11.868 12.9l10.32 16.855h6.535v5.762h-12.985l-12.557-21.672h-5.332v-5.848h7.225c3.44 0 5.89-.76 7.353-2.28 1.462-1.518 2.193-3.452 2.193-5.804 0-2.18-.732-3.97-2.194-5.375-1.462-1.404-3.6-2.107-6.407-2.107h-11.267v37.41h6.192v5.677h-21.5v-5.676zM305.26 88.75l12.75 37.74h-26.86l13.26-37.74h.85zm85.407 36.856c0 46.98-38.086 85.066-85.067 85.066s-85.066-38.085-85.066-85.066S258.62 40.54 305.6 40.54s85.067 38.085 85.067 85.066zm-31.007 36.922h-11.05L321.07 88.58h10.71V77.36h-52.36v11.22h10.37l-26.69 73.95h-11.73v11.22h39.95v-11.22h-11.9l8.5-25.16h33.49l8.5 25.16h-12.24v11.22h41.99v-11.222z"/></svg>
