<svg xmlns="http://www.w3.org/2000/svg" width="64" height="64" viewBox="0 0 64 64"><path fill="#FFF" d="M14.242 25.19v15.304c0 2.028-1.602 3.664-3.63 3.664-2.03 0-3.666-1.636-3.666-3.664V25.19c0-1.992 1.637-3.63 3.665-3.63 1.995 0 3.633 1.638 3.633 3.63zm34.2-4.233H15.52c0-5.66 3.382-10.57 8.4-13.133L21.396 3.16c-.142-.248-.07-.568.177-.71.25-.106.57-.036.713.214l2.562 4.697c2.17-.96 4.59-1.493 7.153-1.493 2.563 0 4.98.535 7.155 1.495l2.56-4.696c.145-.25.465-.32.714-.214.25.142.32.463.18.71l-2.53 4.663c4.982 2.562 8.36 7.473 8.36 13.133zm-.108 24.982c0 2.17-1.742 3.912-3.877 3.912h-2.67v8.08c0 2.026-1.638 3.664-3.667 3.664-2.027 0-3.664-1.638-3.664-3.665v-8.08h-4.912v8.08c0 2.028-1.638 3.666-3.666 3.666-1.994 0-3.63-1.638-3.63-3.665l-.035-8.08H19.58c-2.17 0-3.914-1.74-3.914-3.912V22.236h32.668V45.94zM25.88 13.623c0-.748-.606-1.388-1.388-1.388-.75 0-1.354.64-1.354 1.388 0 .747.604 1.388 1.354 1.388.78 0 1.387-.64 1.387-1.388zm14.982 0c0-.748-.604-1.388-1.353-1.388-.785 0-1.39.64-1.39 1.388 0 .747.604 1.388 1.39 1.388.747 0 1.35-.64 1.35-1.388zm16.192 26.87c0 2.027-1.636 3.663-3.665 3.663-1.996 0-3.633-1.636-3.633-3.664V25.19c0-2.028 1.637-3.63 3.63-3.63 2.03 0 3.666 1.602 3.666 3.63v15.304z"/></svg>