<svg viewBox="0 0 144 32" style="background-color:#ffffff00" xmlns="http://www.w3.org/2000/svg" width="288" height="64"><path d="M98.5 7.5h11M98.5 3.5h11M98.5 11.5h11" stroke="#fff" fill="none"/><path d="M108 11.5c0-.828.448-1.5 1-1.5s1 .672 1 1.5-.448 1.5-1 1.5-1-.672-1-1.5zM104 7.5c0-.828.448-1.5 1-1.5s1 .672 1 1.5-.448 1.5-1 1.5-1-.672-1-1.5zM108 3.5c0-.828.448-1.5 1-1.5s1 .672 1 1.5-.448 1.5-1 1.5-1-.672-1-1.5z" fill="#fff"/><path stroke="#fff" fill="#333" d="M83 21h10v6H83z"/><path d="M81 8c0-2.761 3.134-5 7-5s7 2.239 7 5-3.134 5-7 5-7-2.239-7-5z" fill="url(#gradient1)"/><path stroke="#fff" fill="#333" d="M83 5h10v6H83z"/><g><path d="M73.795 4.205C75.215 4.878 76.2 6.323 76.2 8c0 2.32-1.88 4.2-4.2 4.2-2.32 0-4.2-1.88-4.2-4.2 0-1.677.984-3.122 2.405-3.795l-1.33-1.33C67.15 3.93 66 5.83 66 8c0 3.314 2.686 6 6 6s6-2.686 6-6c0-2.17-1.15-4.07-2.875-5.125l-1.33 1.33z" fill="url(#gradient2)"/><path d="M71 2h-5l5 5V2z" fill="url(#gradient3)"/><g fill="#a8a8b7"><path d="M73.795 20.205c1.42.674 2.405 2.118 2.405 3.795 0 2.32-1.88 4.2-4.2 4.2-2.32 0-4.2-1.88-4.2-4.2 0-1.677.984-3.122 2.405-3.795l-1.33-1.33C67.15 19.93 66 21.83 66 24c0 3.314 2.686 6 6 6s6-2.686 6-6c0-2.17-1.15-4.07-2.875-5.125l-1.33 1.33z"/><path d="M71 18h-5l5 5v-5z"/></g></g><g><path visibility="hidden" stroke="#b0b0b0" fill="none" d="M49 2h14v12H49z"/><text visibility="hidden" x="49" y="17" fill="#fff" style="text-align:center" font-size="10" color="#fff" font-family="Arial"><tspan><![CDATA[cc]]></tspan></text><path d="M55 7c-4.72-3.22-4.937 5.94 0 3M60 7c-4.72-3.22-4.937 5.94 0 3" stroke="#fff" fill="none"/><path d="M50 3h12v10H50V3zm-1-1v12h14V2H49z" fill="url(#gradient4)"/><path fill="none" d="M49 2h14v12H49z"/></g><g><g fill="#301b00"><path d="M17 5h5v6h-5z"/><path d="M21 5l4-3v12l-4-2.938V5z"/></g><path fill="#301b00" d="M17 21h5v6h-5z"/><path d="M21 21l4-3v12l-4-2.938V21z" fill="#301b00"/><path d="M27 18s3.063-.625 3 6c-.063 6.625-3 6-3 6" stroke="#301b00" fill="none"/><path d="M26 21.008s2.04-.312 2 2.992c-.042 3.304-2 2.992-2 2.992" stroke="#301b00" fill="none"/></g><g><path d="M14 8.5L3 14V3l11 5.5z" fill="#301b00"/><g fill="#301b00"><path d="M3 18h3v12H3zM10 18h3v12h-3z"/></g></g><g><path d="M34 2h5l-5 5V2z" fill="url(#gradient12)"/><path d="M34 14h5l-5-5v5z" fill="url(#gradient13)"/><path d="M46 2h-5l5 5V2z" fill="url(#gradient14)"/><path d="M46 14h-5l5-5v5z" fill="url(#gradient15)"/><g><path d="M42 22h4l-4-4v4z" fill="url(#gradient16)"/><path d="M38 22v-4l-4 4h4z" fill="url(#gradient17)"/><path d="M38 26h-4l4 4v-4z" fill="url(#gradient18)"/><path d="M42 26v4l4-4h-4z" fill="url(#gradient19)"/></g></g><g><path fill="url(#gradient20)" d="M115 3h10v10h-10z"/></g><g><path d="M135.235 6.152c1.02-.423 2.19.062 2.613 1.083.422 1.02-.062 2.19-1.083 2.613-1.02.422-2.19-.062-2.613-1.083-.422-1.02.062-2.19 1.083-2.613zm-1.962-4.734L136 4.005l2.726-2.587.1 3.757 3.756.1-2.587 2.725 2.587 2.726-3.757.1-.1 3.756L136 11.995l-2.726 2.587-.1-3.757-3.756-.098L132.005 8l-2.587-2.726 3.757-.1.1-3.756z" fill="url(#gradient21)"/></g></svg>
