<svg xmlns="http://www.w3.org/2000/svg" width="64" height="64" viewBox="0 0 64 64"><path fill="#FFF" d="M41.416 51.426c-.363.133-.76-.2-.696-.596.1-.697.2-1.427.333-2.188.065-.53.132-1.062.198-1.56.035-.198.134-.33.3-.397C48.45 43.17 53.22 36.01 53.22 27.747c0-12.103-10.144-21.85-22.38-21.188-11.21.595-20.13 10.145-20.06 21.352.066 8.26 4.874 15.39 11.804 18.838.166.067.265.233.3.4.065.462.13.96.197 1.49.134.796.233 1.525.366 2.256.065.398-.365.73-.73.563-9.848-3.85-16.71-13.66-16.15-24.974.63-12.832 10.977-23.343 23.81-24.14 14.787-.927 27.09 10.81 27.09 25.4 0 10.747-6.633 19.932-16.05 23.68zm.996-10.212c-.332.264-.797.033-.863-.398-.1-.93-.366-2.022-.96-3.05-.135-.198-.1-.466.097-.663 2.52-2.32 4.112-5.642 4.112-9.356 0-7.494-6.534-13.495-14.194-12.666-5.868.665-10.644 5.506-11.207 11.408-.43 4.18 1.225 8.03 4.044 10.616.2.197.232.465.1.663-.597 1.027-.863 2.12-.962 3.083-.066.397-.53.628-.863.364-4.11-3.184-6.73-8.195-6.63-13.833.197-8.817 7.36-16.18 16.146-16.576 9.748-.464 17.806 7.294 17.806 16.943 0 5.472-2.62 10.384-6.63 13.468zm-10.346-7.097c-4.112 0-7.427-3.32-7.427-7.43 0-4.113 3.313-7.428 7.425-7.428 4.11 0 7.427 3.313 7.427 7.425 0 4.11-3.315 7.43-7.427 7.43zm6.863 14.226c-.498 3.448-.995 6.995-1.825 10.38-.596 2.418-2.85 2.982-5.04 2.982-2.188 0-4.442-.564-5.04-2.983-.83-3.384-1.327-6.93-1.823-10.38-.332-2.154-.563-4.344-.563-6.532 0-4.475 3.613-5.57 7.426-5.57 3.812 0 7.427 1.096 7.427 5.57 0 2.188-.233 4.378-.565 6.533z"/></svg>